<?xml version="1.0" encoding="utf-8"?>
<svg version="1.0" width="300.000000pt" height="76.000000pt" viewBox="0 0 300.000000 76.000000" preserveAspectRatio="xMidYMid meet" xmlns="http://www.w3.org/2000/svg">
  <g transform="translate(0.000000,76.000000) scale(0.100000,-0.100000)" fill="#000000" stroke="none">
    <path d="M 488 415 L 491 200 L 535 200 L 580 200 L 580 318 C 580 423 582 439 599 454 C 610 464 627 470 637 468 C 670 462 681 421 678 307 L 675 200 L 723 200 L 770 200 L 766.23 454.914 C 751.445 514.951 704 532 664 527 C 639 525 610 514 600 505 C 580 487 580 488 580 558 L 580 630 L 533 630 L 485 630 L 488 415 Z" style="fill: rgb(255, 255, 255);"/>
    <path d="M 1738 574 C 1717 561 1700 543 1700 535 C 1700 527 1691 520 1680 520 C 1667 520 1660 513 1660 500 C 1660 487 1667 480 1680 480 C 1699 480 1700 473 1700 355 C 1700 243 1702 228 1720 210 C 1740 190 1775 185 1818 196 C 1830 200 1840 206 1840 210 C 1840 215 1830 220 1818 222 C 1796 225 1795 229 1792 353 L 1789 480 L 1815 480 C 1833 480 1840 485 1840 500 C 1840 515 1833 520 1815 520 C 1793 520 1790 524 1790 560 C 1790 582 1787 600 1783 599 C 1778 599 1758 588 1738 574 Z" style="fill: rgb(255, 255, 255);"/>
    <path d="M 890 512 C 871 503 847.173 477.314 832 460 C 798.387 421.643 804.985 275.828 852 233 C 885.878 202.139 903.762 189.014 954.762 186.014 C 996.762 183.014 1014 194 1039 207 C 1081 229 1091.249 265.416 1059 246 C 962.964 188.181 895.636 290.607 907 360 L 1009 360 L 1110 360 L 1110 391 C 1110 435 1072 497 1034 515 C 992 535 933 534 890 512 Z M 992 473 C 1002 464 1010 444 1010 428 C 1010 401 1009 400 955 400 C 900 400 900 400 906 428 C 920 485 957 505 992 473 Z" style="fill: rgb(255, 255, 255);"/>
    <path d="M 1275 515 C 1256 505 1244 503 1242 509 C 1240 515 1216 520 1189 520 L 1140 520 L 1140 355 L 1140 190 L 1190 190 L 1240 190 L 1240 318 C 1240 456 1245 470 1291 470 C 1336 470 1341 453 1338 316 L 1335 190 L 1385 190 L 1435 190 L 1432 310 C 1428 444 1436 470 1478 470 C 1525 470 1530 456 1530 318 L 1530 190 L 1580 190 L 1630 190 L 1630 325 C 1630 402 1625 469 1619 483 C 1597 531 1521 544 1459 511 C 1426 493 1421 493 1407 507 C 1385 530 1311 534 1275 515 Z" style="fill: rgb(255, 255, 255);"/>
    <path d="M 1943 514 C 1897 491 1869 441 1863 372 C 1852 232 1968 151 2098 210 C 2160 238 2150 265 2086 240 C 2031 220 1970 269 1970 335 L 1970 360 L 2070 360 L 2171 360 L 2164 398 C 2154 454 2138 482 2101 507 C 2060 535 1991 537 1943 514 Z M 2049 477 C 2055 469 2063 449 2066 432 L 2073 400 L 2015 400 L 1958 400 L 1964 432 C 1972 473 1987 490 2015 490 C 2027 490 2043 484 2049 477 Z" style="fill: rgb(255, 255, 255);"/>
    <path d="M 2283 510 C 2222 479 2195 430 2195 353 C 2195 309.832 2200 291.711 2216 264 C 2260.005 187.786 2344 173 2424 208 C 2482 234 2484 252 2428 244 C 2393 239 2380 242 2356 261 C 2320 289 2300 337 2300 394 C 2300 444 2321 476 2361 485 C 2383 491 2390 486 2408 456 C 2420 436 2434 420 2439 420 C 2485 420 2494 464 2455 500 C 2419 534 2339 538 2283 510 Z" style="fill: rgb(255, 255, 255);"/>
    <path d="M 2516.801 405.741 L 2519.801 190.741 L 2563.801 190.741 L 2608.801 190.741 L 2608.801 308.741 C 2608.801 413.741 2610.801 429.741 2627.801 444.741 C 2638.801 454.741 2655.801 460.741 2665.801 458.741 C 2698.801 452.741 2709.801 411.741 2706.801 297.741 L 2703.801 190.741 L 2751.801 190.741 L 2798.801 190.741 L 2795.031 445.655 C 2780.246 505.692 2732.801 522.741 2692.801 517.741 C 2667.801 515.741 2638.801 504.741 2628.801 495.741 C 2608.801 477.741 2608.801 478.741 2608.801 548.741 L 2608.801 620.741 L 2561.801 620.741 L 2513.801 620.741 L 2516.801 405.741 Z" style="fill: rgb(255, 255, 255);"/>
    <path d="M 246.187 515.641 C 185.187 484.641 158.187 435.641 158.187 358.641 C 158.187 315.473 163.187 297.352 179.187 269.641 C 223.192 193.427 307.187 178.641 387.187 213.641 C 445.187 239.641 447.187 257.641 391.187 249.641 C 356.187 244.641 343.187 247.641 319.187 266.641 C 283.187 294.641 263.187 342.641 263.187 399.641 C 263.187 449.641 284.187 481.641 324.187 490.641 C 346.187 496.641 353.187 491.641 371.187 461.641 C 383.187 441.641 397.187 425.641 402.187 425.641 C 448.187 425.641 457.187 469.641 418.187 505.641 C 382.187 539.641 302.187 543.641 246.187 515.641 Z" style="fill: rgb(255, 255, 255);"/>
  </g>
</svg>